PathFileType	4	(X/Y/Z)	D:\TRACE\v60_Jaco2_6-2-23\BothDRS_Motion1_9-v60.trc
DataRate	CameraRate	NumFrames	NumMarkers	Units	OrigDataRate	OrigDataStartFrame	OrigNumFrames
100.00	100.00	      17	9	mm	100.00	938	      7500
Frame#	Time	front left toe			Front right toe			aft left toe			aft right toe			Arm			FL body			FR body			AL Body			AR Body			
		X1	Y1	Z1	X2	Y2	Z2	X3	Y3	Z3	X4	Y4	Z4	X5	Y5	Z5	X6	Y6	Z6	X7	Y7	Z7	X8	Y8	Z8	X9	Y9	Z9	

938	9.370	-94.19220	34.15773	-190.13141	257.67746	11.18281	-227.88582	-81.20340	16.88329	421.45261	317.87863	30.69594	411.70697	99.91091	1203.20850	-382.79584	1.95599	576.36786	-340.76630	162.27866	576.25122	-350.83411	60.20439	551.91937	603.07019	217.31093	546.40808	595.07635	
939	9.380	-93.49892	27.95497	-189.69266	257.98026	10.91732	-228.08084	-80.76963	17.08014	421.55331	318.88095	24.61466	412.07703	101.35927	1203.10242	-382.99393	3.56529	576.35236	-340.38254	163.52753	576.19867	-350.60834	61.06816	551.88934	603.30591	218.54808	546.20276	595.36798	
940	9.390	-91.90593	21.69610	-189.03729	258.41388	10.69994	-228.18576	-79.89549	17.41128	421.44177	320.12799	25.60605	409.29541	103.07890	1202.91174	-382.70560	4.84749	576.15759	-340.18564	164.87747	575.96167	-349.84793	62.44452	552.28735	603.53448	219.80870	546.62567	595.77649	
941	9.400	-90.59698	16.41649	-189.04195	258.99826	10.59495	-228.14525	-79.26739	17.47571	421.38904	320.48914	22.74895	410.51001	104.73384	1202.81702	-382.55701	6.62755	575.48315	-339.97626	166.96904	575.36664	-349.86816	63.57795	553.21747	603.92462	221.64664	548.06567	596.73157	
942	9.410	-91.83789	16.03363	-191.35419	259.15161	10.42863	-227.86301	-79.86282	18.38562	420.91867	321.63251	24.77242	410.13281	106.27628	1202.81958	-382.60602	8.34069	574.82080	-339.59906	168.57141	575.05627	-349.31091	64.43617	554.82336	604.17908	221.48239	549.43958	596.44299	
943	9.420	-91.87376	14.04248	-190.22937	259.57855	10.61201	-227.69856	-79.24459	19.69699	421.47195	321.17520	23.57664	410.88770	107.71173	1203.02942	-383.02985	10.11572	575.57068	-339.61816	169.67542	575.15521	-348.75235	65.77612	556.09637	604.64569	225.28008	550.31219	596.48846	
944	9.430	-91.32311	14.86124	-190.18648	259.69482	12.46725	-228.74681	-78.23624	21.14153	420.39389	321.80511	23.62604	411.24680	109.09338	1203.28027	-384.57959	11.66240	577.33606	-339.01965	171.68054	576.82111	-348.67151	66.69240	556.33185	605.05212	223.48131	551.46094	598.88538	
945	9.440	-89.77888	14.56689	-189.97498	257.58279	16.32446	-226.10258	-74.88560	24.53872	420.62888	322.06464	23.21277	410.61566	111.14734	1203.57495	-385.41782	13.13749	578.73529	-339.26080	172.71080	578.10217	-348.26797	67.48101	555.87134	605.20447	225.01170	550.34363	597.77234	
946	9.450	-89.90004	15.12033	-191.41527	256.44290	20.69908	-222.70204	-69.81197	27.08906	423.21078	322.34943	23.40416	410.58716	113.05772	1204.18896	-384.94745	14.85254	579.84723	-339.01620	174.09337	578.98657	-348.34174	68.59473	556.20526	605.31573	225.85817	550.52655	597.55969	
947	9.460	-89.89895	14.36190	-191.18845	256.52347	29.52742	-221.54478	-64.28751	37.16423	422.35382	322.39282	23.52724	410.41656	115.55194	1205.51428	-383.48373	15.07078	580.00116	-339.50894	175.05760	578.83032	-348.56232	69.61523	557.11383	604.54486	226.70122	551.58838	598.08575	
948	9.470	-89.70535	14.08733	-191.01791	258.25540	38.67299	-220.60951	-60.99289	46.20322	422.17719	322.50320	23.72466	410.50183	118.17365	1206.92749	-382.07065	16.43435	579.33502	-339.62097	176.68513	578.31799	-348.99887	70.42723	557.88074	604.58075	227.94234	552.24585	597.80872	
949	9.480	-89.46712	13.85443	-191.21667	260.77512	49.63138	-221.19229	-60.81477	59.63689	421.68686	322.76285	23.76437	410.52814	120.55478	1208.07019	-381.29437	16.99661	578.98315	-339.56952	176.80283	577.86066	-348.80927	71.91824	558.26971	604.51050	229.18539	552.27045	596.92438	
950	9.490	-89.36539	14.02468	-190.62656	264.21255	61.33363	-221.88947	-60.46999	71.18441	421.48312	323.09879	23.69189	410.30899	122.55869	1207.69873	-381.42429	17.75155	578.84113	-339.54364	177.17450	577.63812	-348.90637	73.53374	558.00946	605.02338	231.18825	552.57111	597.92914	
951	9.500	-89.45882	13.90477	-190.97702	266.65350	72.94563	-223.16327	-61.03990	82.77217	421.64832	323.24731	23.46977	410.04245	123.50546	1206.71814	-382.40051	18.15455	578.92877	-339.29721	177.74779	577.30756	-348.97018	75.08843	557.78827	604.73853	233.11755	552.04413	598.24725	
952	9.510	-89.45758	13.52071	-190.91389	269.34613	84.53990	-224.02495	-60.12328	95.49289	421.20520	323.22412	23.49142	409.74084	123.80580	1204.98560	-383.76010	18.88571	578.57977	-338.91757	178.97227	576.89465	-349.07422	76.69046	557.67773	604.90833	234.50647	551.65399	598.25159	
953	9.520	-89.55820	13.31497	-190.90517	271.97324	95.61658	-224.58766	-59.27996	106.84784	421.34698	323.25351	23.60115	409.77322	123.54314	1203.37744	-385.34155	19.24654	578.24976	-339.07892	179.43387	576.21436	-349.17776	78.33302	557.68182	604.95416	235.94388	551.59125	597.92871	
954	9.530	-89.64999	13.09375	-190.98451	273.70108	106.06109	-224.75359	-56.77593	117.56126	421.13300	323.58612	23.78439	409.73270	123.54151	1202.37524	-386.35889	20.07378	577.28748	-338.77661	179.36093	575.22919	-349.17035	79.55351	557.91382	604.87750	237.64049	551.67737	597.93933	
